<?xml version="1.0" encoding="utf-8"?>
<!-- Generator: Adobe Illustrator 23.0.0, SVG Export Plug-In . SVG Version: 6.00 Build 0)  -->
<svg version="1.1" id="Layer_1" xmlns="http://www.w3.org/2000/svg" xmlns:xlink="http://www.w3.org/1999/xlink" x="0px" y="0px"
	 viewBox="0 0 454.67 312.51" style="enable-background:new 0 0 454.67 312.51;" xml:space="preserve">
<style type="text/css">
	.st0{fill:#BC9AC8;stroke:#BC9AC8;stroke-miterlimit:10;}
	.st1{font-family:'ProximaNovaExCn-Semibold';}
	.st2{font-size:31.5432px;}
	.st3{letter-spacing:3;}
	.st4{font-size:16.889px;}
	.st5{letter-spacing:8;}
</style>
<g>
	<text transform="matrix(1 0 0 1 123.0399 164.1619)" class="st0 st1 st2 st3">THREE OF A KIND</text>
	<text transform="matrix(1 0 0 1 144.0033 185.7107)" class="st0 st1 st4 st5">PHOTOGRAPHY</text>
	<path class="st0" d="M414.68,109.88l-1.77-1.77l-54.44,54.44L227.32,31.39L96.17,162.54L41.73,108.1l-1.77,1.77l54.44,54.44
		l-54.44,54.44l1.77,1.77l54.44-54.44l131.15,131.15l131.15-131.15l54.44,54.44l1.77-1.77l-54.44-54.44L414.68,109.88z
		 M227.32,293.69L97.94,164.31L227.32,34.94L356.7,164.31L227.32,293.69z"/>
	<g>
		<path class="st0" d="M222.03,93.67c1.5-1.84,3.37-2.85,5.28-2.85c1.91,0,3.79,1.01,5.28,2.85l0.16,0.2l1.56-1.27l-0.17-0.2
			c-1.89-2.31-4.32-3.59-6.84-3.59c-2.53,0-4.96,1.27-6.84,3.59l-0.16,0.2l1.56,1.27L222.03,93.67z"/>
		<path class="st0" d="M227.32,99.19c-5.39,0-9.77,4.38-9.77,9.77c0,5.38,4.38,9.76,9.77,9.76c5.38,0,9.77-4.38,9.77-9.76
			C237.08,103.57,232.7,99.19,227.32,99.19z M235.08,108.95c0,4.27-3.48,7.75-7.76,7.75c-4.28,0-7.76-3.48-7.76-7.75
			c0-4.28,3.48-7.76,7.76-7.76C231.6,101.19,235.08,104.67,235.08,108.95z"/>
		<polygon class="st0" points="238.6,97.84 238.6,99.84 246.65,99.84 246.65,118.06 238.6,118.06 238.6,120.06 248.66,120.06 
			248.66,97.84 		"/>
		<polygon class="st0" points="205.97,120.06 216.04,120.06 216.04,118.06 207.98,118.06 207.98,99.84 216.04,99.84 216.04,97.84 
			205.97,97.84 		"/>
	</g>
	<path class="st0" d="M203.14,210.07v26.63h48.47v-26.63H203.14z M205.1,234.74v-22.72h44.56v22.72H205.1z"/>
</g>
<path class="st0" d="M219.46,223.69c0.28-0.35,0.44-0.8,0.44-1.28c0-1.14-0.93-2.07-2.07-2.07c-0.82,0-1.53,0.48-1.86,1.17
	c-0.33-0.69-1.04-1.17-1.86-1.17c-1.14,0-2.07,0.93-2.07,2.07c0,0.48,0.17,0.93,0.44,1.28l3.49,3.81L219.46,223.69"/>
<path class="st0" d="M215.97,222.19L215.97,222.19c0-0.92,0.95-1.44,1.86-1.44c0.92,0,1.66,0.75,1.66,1.66
	c0,0.39-0.13,0.75-0.36,1.03"/>
<path class="st0" d="M230.53,223.82c0.28-0.35,0.44-0.8,0.44-1.28c0-1.14-0.93-2.07-2.07-2.07c-0.82,0-1.53,0.48-1.86,1.17
	c-0.33-0.69-1.04-1.17-1.86-1.17c-1.14,0-2.07,0.93-2.07,2.07c0,0.48,0.17,0.93,0.44,1.28l3.49,3.81L230.53,223.82"/>
<path class="st0" d="M230.21,223.57l-3.17,3.92l-3.17-3.92c-0.22-0.28-0.36-0.64-0.36-1.03c0-0.92,0.75-1.66,1.66-1.66
	c0.92,0,1.86,0.52,1.86,1.44"/>
<path class="st0" d="M227.04,222.32L227.04,222.32c0-0.92,0.95-1.44,1.86-1.44c0.92,0,1.66,0.75,1.66,1.66
	c0,0.39-0.13,0.75-0.36,1.03"/>
<path class="st0" d="M242.76,223.69c0.28-0.35,0.44-0.8,0.44-1.28c0-1.14-0.93-2.07-2.07-2.07c-0.82,0-1.53,0.48-1.86,1.17
	c-0.33-0.69-1.04-1.17-1.86-1.17c-1.14,0-2.07,0.93-2.07,2.07c0,0.48,0.17,0.93,0.44,1.28l3.49,3.81L242.76,223.69"/>
<path class="st0" d="M242.44,223.44l-3.17,3.92l-3.17-3.92c-0.22-0.28-0.36-0.64-0.36-1.03c0-0.92,0.75-1.66,1.66-1.66
	c0.92,0,1.86,0.52,1.86,1.44"/>
<path class="st0" d="M239.27,222.19L239.27,222.19c0-0.92,0.95-1.44,1.86-1.44c0.92,0,1.66,0.75,1.66,1.66
	c0,0.39-0.13,0.75-0.36,1.03"/>
</svg>
